<svg xmlns="http://www.w3.org/2000/svg" width="25" height="19">
  <g fill="none" fill-rule="evenodd">
    <path fill="#000" fill-rule="nonzero" d="M12.5 19.001C5.596 19.001 0 9.499 0 9.499S5.596 0 12.5 0C19.403 0 25 9.499 25 9.499s-5.597 9.502-12.5 9.502zM12.5 1C7.116 1 2.424 7.595 1.182 9.499c1.244 1.903 5.945 8.502 11.318 8.502 5.372 0 10.073-6.597 11.317-8.502C22.573 7.596 17.872 1 12.5 1zm0 13.998a5.5 5.5 0 1 1 0-10.999 5.5 5.5 0 0 1 0 10.999zm0-9.999a4.5 4.5 0 1 0 0 9 4.5 4.5 0 0 0 0-9z"/>
  </g>
</svg>
